<svg version="1.1" xmlns="http://www.w3.org/2000/svg" style="display: block;" viewBox="0 0 2048 2048" width="1024" height="1024" preserveAspectRatio="none">
<path transform="translate(0,0)" fill="rgb(0,87,88)" d="M 0 0 L 2048 0 L 2048 491.012 L 2048 569.769 L 2048 1191.33 L 2048 1273.03 L 2048 1510.15 L 2048 1644.84 L 2048 2048 L 0 2048 L 0 1644.82 L 0 1510.58 L 0 1269.37 L 0 1187.19 L 0 1081.96 L 0 695.489 L 0 569.811 L 0 492.158 L 0 0 z"/>
<path transform="translate(0,0)" fill="rgb(254,187,48)" d="M 0 0 L 2048 0 L 2048 491.012 C 1930.56 372.937 1789.02 317.686 1622.7 316.936 C 1474.34 316.266 1335.89 381.844 1231.7 485.527 C 1125.63 590.293 1065.94 733.168 1065.94 882.25 C 1065.76 974.952 1085.39 1060.9 1128.76 1143.28 C 1136.21 1157.44 1147.44 1177.38 1156.68 1190.32 C 1135.73 1213.19 1090.7 1249.66 1125.23 1279.16 C 1119.12 1297.97 1116.75 1319.74 1126.41 1337.92 C 1149.92 1382.17 1206.92 1365.6 1247.77 1363.9 C 1217.35 1437.89 1199.61 1516.48 1195.28 1596.37 L 861.522 1596.24 C 895.99 1552.99 916.635 1490.66 917.589 1433.37 C 917.893 1415.13 898.397 1410.18 882.566 1409.91 C 871.628 1367.97 844.267 1344.95 801.156 1339.29 C 792.08 1326.62 789.125 1323 777.43 1312.95 C 793.601 1300.38 813.553 1280.44 827.695 1265.36 C 909.044 1179.2 960.923 1069.44 975.846 951.887 C 994.888 803.433 953.084 653.589 859.942 536.432 C 766.6 417.889 630.627 340.519 481.036 320.83 C 331.198 301.211 179.794 343.007 61.2406 436.716 C 39.5706 453.76 19.108 472.285 -5.68434e-14 492.158 L 0 0 z"/>
<path transform="translate(0,0)" fill="rgb(53,179,162)" d="M 0 569.811 C 112.87 435.041 253.095 366.218 430.008 371.115 C 518.251 373.705 604.31 399.162 679.762 444.995 C 690.918 451.75 713.751 466.011 722.253 474.995 C 736.69 483.546 760.363 505.962 772.616 517.808 C 838.923 581.913 888.275 664.441 911.191 754.217 C 945.215 885.511 925.574 1024.95 856.605 1141.73 C 825.908 1193.37 776.056 1250.97 728.825 1288.27 C 695.739 1282.51 663.251 1288.7 635.615 1308.21 C 625.074 1315.71 615.824 1324.87 608.228 1335.34 C 586.323 1332.83 566.922 1332.24 546.124 1340.66 C 513.627 1353.81 492.102 1380.62 481.792 1413.44 C 463.915 1410.31 446.311 1410.22 428.209 1409.71 C 390.174 1408.62 354.979 1399.46 321.857 1380.33 C 309.732 1373.38 298.333 1365.23 287.829 1356 C 279.061 1348.24 272.562 1340.19 264.622 1332.25 C 251.792 1319.42 226.841 1326.5 225.405 1345.75 C 223.877 1366.23 246.43 1380.06 259.682 1392.43 C 302.4 1428.72 357.063 1451.54 413.157 1454.65 C 446.056 1456.47 487.501 1453.57 511.839 1480.49 C 521.856 1491.68 526.908 1506.45 525.84 1521.43 C 521.844 1574.28 453.691 1579.21 414.005 1573.73 C 388.618 1570.22 366.718 1565.68 342.474 1556.76 C 326.01 1550.71 304.415 1532.3 288.271 1545.31 C 283.363 1549.33 280.227 1555.11 279.535 1561.42 C 277.499 1580.66 299.344 1589.7 313.486 1596.93 C 252.527 1594.37 186.52 1597.86 125.097 1596.32 C 87.4261 1546.55 76.0759 1507.78 80.1705 1444.28 C 80.9155 1432.73 85.6407 1415 82.8488 1404.52 C 90.0576 1387.16 98.6565 1370.4 108.562 1354.43 C 122.626 1349.59 133.962 1343.5 132.501 1326.48 C 131.075 1309.86 109.51 1302.82 97.8794 1292.41 L 96.8487 1291.48 C 67.5952 1271.18 21.1716 1215.83 0 1187.19 L 0 1081.96 L 0 695.489 L 0 569.811 z"/>
<path transform="translate(0,0)" fill="rgb(98,203,186)" d="M 0 569.811 C 112.87 435.041 253.095 366.218 430.008 371.115 C 518.251 373.705 604.31 399.162 679.762 444.995 C 690.918 451.75 713.751 466.011 722.253 474.995 C 725.74 485.46 728.38 493.873 722.865 504.753 C 718.894 512.421 711.876 518.06 703.534 520.288 C 685.001 525.403 673.412 512.209 659.439 503.062 C 646.044 494.356 632.147 486.448 617.82 479.38 C 520.391 430.789 407.728 420.768 302.169 445.326 C 189.358 471.585 91.7273 541.855 31.0112 640.493 C 19.3594 659.235 10.6782 677.746 0 695.489 L 0 569.811 z"/>
<path transform="translate(0,0)" fill="rgb(98,203,186)" d="M 0 1081.96 C 24.2634 1130.22 46.0422 1164.96 82.7257 1205.21 C 88.8192 1211.98 95.1025 1218.57 101.568 1224.98 C 114.618 1237.72 135.694 1251.38 127.77 1272.58 C 123.11 1285.05 112.33 1290.79 99.4614 1291.36 L 97.8292 1291.45 C 97.5023 1291.46 97.1755 1291.47 96.8487 1291.48 C 67.5952 1271.18 21.1716 1215.83 0 1187.19 L 0 1081.96 z"/>
<path transform="translate(0,0)" fill="rgb(0,87,88)" d="M 399.144 500.631 C 614.975 492.089 796.887 660.083 805.514 875.91 C 814.141 1091.74 646.217 1273.71 430.394 1282.43 C 214.451 1291.14 32.3508 1123.11 23.7191 907.159 C 15.0874 691.213 183.195 509.179 399.144 500.631 z"/>
<path transform="translate(0,0)" fill="rgb(53,179,162)" d="M 741.733 1005.6 C 680.576 1180.51 492.631 1276.35 315.144 1223.13 C 137.657 1169.91 33.4515 986.47 78.6241 806.767 C 123.797 627.063 302.358 514.704 483.913 551.738 C 665.468 588.773 785.755 762.093 756.933 945.132 C 753.694 965.703 748.607 985.94 741.733 1005.6 z"/>
<path transform="translate(0,0)" fill="rgb(230,149,127)" d="M 741.733 1005.6 C 720.142 1007.01 680.66 1005.28 666.401 990.102 C 632.537 954.046 695.011 934.057 722.388 937.328 C 731.81 938.454 751.321 939.094 756.933 945.132 C 753.694 965.703 748.607 985.94 741.733 1005.6 z"/>
<path transform="translate(0,0)" fill="rgb(0,87,88)" d="M 281.655 766.595 C 325.711 761.923 365.143 794.025 369.501 838.114 C 373.86 882.202 341.477 921.404 297.359 925.449 C 253.682 929.452 214.958 897.465 210.644 853.818 C 206.329 810.171 238.04 771.221 281.655 766.595 z"/>
<path transform="translate(0,0)" fill="rgb(239,234,226)" d="M 315.44 811.474 C 330.118 810.037 343.225 820.666 344.851 835.325 C 346.477 849.984 336.019 863.227 321.382 865.042 C 311.744 866.238 302.209 862.155 296.422 854.356 C 290.635 846.557 289.491 836.248 293.428 827.37 C 297.365 818.493 305.774 812.42 315.44 811.474 z"/>
<path transform="translate(0,0)" fill="rgb(0,87,88)" d="M 636.127 765.827 C 678.668 759.352 718.39 788.625 724.802 831.176 C 731.213 873.726 701.88 913.405 659.32 919.752 C 616.85 926.086 577.275 896.829 570.877 854.369 C 564.479 811.909 593.676 772.289 636.127 765.827 z"/>
<path transform="translate(0,0)" fill="rgb(239,234,226)" d="M 668.198 805.182 C 673.317 804.755 677.251 804.639 682.168 806.482 C 689.341 809.186 695.019 814.824 697.773 821.979 C 700.702 829.368 700.493 837.632 697.194 844.864 C 693.441 853.01 688.172 856.871 680.136 860.024 C 674.5 861 670.641 861.105 665.124 859.1 C 658.439 856.686 653.051 851.615 650.236 845.09 C 646.991 837.712 646.81 829.348 649.731 821.837 C 653.45 812.507 659.383 808.695 668.198 805.182 z"/>
<path transform="translate(0,0)" fill="rgb(0,87,88)" d="M 575.083 981.084 C 579.538 980.827 587.409 980.693 591.066 983.667 C 635.243 1019.58 544.685 1055.09 519.273 1060.01 C 474.444 1068.69 433.556 1061.36 395.538 1036.55 C 387.674 1031.51 379.522 1026.43 375.361 1017.96 C 363.342 993.515 389.686 974.375 410.402 990.48 C 414.663 993.792 421.682 998.647 426.343 1001.52 C 462.124 1023.58 511.179 1022.34 546.761 1000.55 C 556.327 994.696 564.926 985.714 575.083 981.084 z"/>
<path transform="translate(0,0)" fill="rgb(230,149,127)" d="M 197.86 939.373 C 280.25 930.241 318.985 995.908 227.066 1009.86 C 206.267 1010.8 172.836 1010.36 156.276 996.709 C 114.089 961.946 170.932 942.867 197.86 939.373 z"/>
<path transform="translate(0,0)" fill="rgb(186,108,55)" d="M 0 1644.82 L 2048 1644.84 L 2048 2048 L 0 2048 L 0 1644.82 z"/>
<path transform="translate(0,0)" fill="rgb(53,179,162)" d="M 1234.22 1109.36 C 1219.07 1085.42 1205.47 1054.15 1196.48 1027.27 C 1158.89 915.119 1167.31 792.642 1219.88 686.688 C 1273.26 577.62 1368.17 494.528 1483.34 456.032 C 1590.51 420.646 1722.64 423.313 1824.77 474.22 C 1839.7 481.664 1854.58 490.115 1868.78 498.83 C 1885.12 508.853 1899.95 529.6 1921.55 520.663 C 1931.05 516.758 1938.12 510.531 1942.23 501.014 C 1947.62 488.557 1943.24 479.592 1938.24 468.098 C 1969.56 484.004 2024.74 542.627 2048 569.769 L 2048 1191.33 C 2024.41 1222.08 1998.13 1250.66 1969.47 1276.75 C 1963.1 1282.59 1955.96 1288.43 1949.15 1293.59 C 1936.82 1302.93 1924.28 1310.03 1927.13 1327.84 C 1928.68 1337.53 1936.51 1342.97 1941.25 1351 C 1950.14 1366.43 1959.58 1385.17 1965.85 1401.81 C 1963.66 1412.57 1968.05 1437.73 1967.88 1450.15 C 1967.34 1490.04 1966.03 1530.1 1945.67 1565.78 C 1940.09 1575.93 1928.14 1589.79 1924.8 1596.32 L 1246.06 1596.41 C 1248.72 1540.57 1254.83 1499.14 1268.93 1444.93 C 1329.21 1448.41 1367.34 1472.19 1417.23 1500.87 C 1479.82 1536.84 1545.53 1555.84 1617.98 1551.12 C 1636.7 1549.9 1679.76 1544.2 1696.31 1538.06 C 1715.03 1535.43 1724.18 1534.29 1729.15 1514.17 C 1724.92 1491.97 1712.99 1489.89 1692.91 1491.8 C 1659.98 1494.95 1626.52 1491.32 1594.4 1483.72 C 1562.66 1476.2 1530.84 1464.36 1503.32 1446.51 C 1473.11 1426.92 1443.03 1395.98 1435.3 1359.63 C 1428.6 1328.1 1443.56 1288.63 1478.49 1282.63 C 1516.63 1276.4 1546.19 1305.5 1574.61 1326.02 C 1636.32 1370.58 1714.33 1382.05 1787.49 1363.46 C 1798.39 1360.7 1813.13 1357.99 1819.9 1348 C 1826.71 1337.96 1822.81 1322.26 1812.2 1316.36 C 1800.12 1309.77 1786.59 1317.45 1774.54 1320.13 C 1736.28 1328.33 1697.8 1330.14 1659.73 1319.81 C 1636.83 1313.59 1620.09 1305.08 1600.04 1293.12 C 1655 1297.77 1720.69 1284.66 1771.11 1263.2 C 1870.26 1220.28 1948.56 1140.1 1989.12 1039.97 C 2028.76 940.409 2027.66 829.252 1986.04 730.5 C 1945.64 637.517 1870.18 564.232 1776.05 526.566 C 1679.04 488.423 1570.94 489.847 1474.97 530.531 C 1379.2 572.185 1303.79 650.037 1265.22 747.092 C 1233.63 827.195 1229.97 915.612 1254.85 998.049 C 1262.07 1022.26 1270.26 1041.33 1280.35 1064.48 C 1265.51 1076.46 1247.9 1095.34 1234.22 1109.36 z"/>
<path transform="translate(0,0)" fill="rgb(98,203,186)" d="M 1191.48 1153.71 C 1145.71 1072.58 1121.82 1006.18 1116.86 911.81 C 1109.65 774.814 1153.43 645.967 1245.7 543.996 C 1337.62 440.686 1467.14 378.584 1605.25 371.617 C 1703.45 366.276 1801.19 388.437 1887.48 435.607 C 1902.72 443.961 1925.65 456.723 1938.24 468.098 C 1943.24 479.592 1947.62 488.557 1942.23 501.014 C 1938.12 510.531 1931.05 516.758 1921.55 520.663 C 1899.95 529.6 1885.12 508.853 1868.78 498.83 C 1854.58 490.115 1839.7 481.664 1824.77 474.22 C 1722.64 423.313 1590.51 420.646 1483.34 456.032 C 1368.17 494.528 1273.26 577.62 1219.88 686.688 C 1167.31 792.642 1158.89 915.119 1196.48 1027.27 C 1205.47 1054.15 1219.07 1085.42 1234.22 1109.36 C 1219.81 1123.98 1205.56 1138.77 1191.48 1153.71 z"/>
<path transform="translate(0,0)" fill="rgb(24,157,146)" d="M 1299.93 1361.11 C 1328 1359.7 1361.32 1356.37 1388.75 1355.78 C 1393.12 1401.42 1420.86 1440.08 1455.51 1468.74 C 1505.87 1510.4 1573.72 1532.12 1638.29 1537.34 C 1656.67 1538.82 1677.66 1538.24 1696.31 1538.06 C 1679.76 1544.2 1636.7 1549.9 1617.98 1551.12 C 1545.53 1555.84 1479.82 1536.84 1417.23 1500.87 C 1367.34 1472.19 1329.21 1448.41 1268.93 1444.93 C 1277.59 1415.38 1286.44 1388.91 1299.93 1361.11 z"/>
<path transform="translate(0,0)" fill="rgb(254,187,48)" d="M 0 1269.37 C 21.3429 1293.07 41.5471 1313.4 66.6425 1333.25 C 42.953 1376.51 26.687 1411.63 12.6698 1459.36 C 7.97986 1475.33 4.21564 1496.94 0 1510.58 L 0 1269.37 z"/>
<path transform="translate(0,0)" fill="rgb(24,157,146)" d="M 38.0204 1596.35 C 41.2719 1535.67 55.4496 1459.19 82.8488 1404.52 C 85.6407 1415 80.9155 1432.73 80.1705 1444.28 C 76.0759 1507.78 87.4261 1546.55 125.097 1596.32 C 96.339 1596.72 66.8271 1596.43 38.0204 1596.35 z"/>
<path transform="translate(0,0)" fill="rgb(24,157,146)" d="M 1965.85 1401.81 C 1991.13 1462.17 2003.61 1531.12 2004.09 1596.46 C 1979.47 1596.44 1948.9 1597.3 1924.8 1596.32 C 1928.14 1589.79 1940.09 1575.93 1945.67 1565.78 C 1966.03 1530.1 1967.34 1490.04 1967.88 1450.15 C 1968.05 1437.73 1963.66 1412.57 1965.85 1401.81 z"/>
<path transform="translate(0,0)" fill="rgb(254,187,48)" d="M 1987.56 1329.83 C 2004.18 1318.34 2034.42 1287.66 2048 1273.03 L 2048 1510.15 C 2046.07 1503.92 2044.78 1495.33 2043.53 1488.69 C 2033.04 1433.05 2015.61 1379.08 1987.56 1329.83 z"/>
<path transform="translate(0,0)" fill="rgb(53,179,162)" d="M 1287.47 942.669 C 1274.32 845.25 1292.77 759.986 1353.01 680.972 C 1409.6 607.297 1493.09 559.069 1585.19 546.863 C 1676.86 534.27 1769.75 559.104 1842.91 615.767 C 1913.35 670.8 1959.28 751.361 1970.76 840.009 C 1982.5 931.656 1958.12 1033.07 1900.84 1106.22 C 1819.67 1209.89 1696.42 1267.4 1564.71 1243.36 C 1566.61 1224.28 1563.7 1217.51 1547.93 1206.37 C 1535.69 1197.73 1523.22 1189.21 1510.83 1180.77 L 1415.71 1115.81 C 1394.28 1100.94 1347.01 1062.75 1326.21 1054.68 C 1314.6 1033.7 1309.92 1020.75 1302.21 998.916 C 1295.13 980.586 1291.45 961.814 1287.47 942.669 z"/>
<path transform="translate(0,0)" fill="rgb(230,149,127)" d="M 1287.47 942.669 C 1316.27 933.604 1350.02 929.854 1377.42 943.706 C 1412.69 961.543 1393.56 987.171 1364.45 994.712 C 1341.18 1000.74 1325.56 1000.25 1302.21 998.916 C 1295.13 980.586 1291.45 961.814 1287.47 942.669 z"/>
<path transform="translate(0,0)" fill="rgb(0,87,88)" d="M 1465.94 966.185 C 1478.83 964.726 1492.69 969.932 1504.54 974.301 C 1549.07 990.726 1595.91 992.968 1641.36 978.565 C 1651.02 975.503 1662.68 969.974 1672.48 968.125 C 1701.79 962.596 1703.79 989.553 1699.02 1010.87 C 1693.77 1039.67 1687.56 1058.69 1670.2 1081.17 C 1606.33 1151.9 1502.87 1111.79 1461.6 1037.41 C 1450.02 1016.54 1438.7 980.011 1465.94 966.185 z"/>
<path transform="translate(0,0)" fill="rgb(230,149,127)" d="M 1627.83 1029.42 C 1639.87 1028.26 1649.14 1030.44 1660.84 1033.02 C 1644.15 1073.1 1616.8 1089.66 1574.17 1083.69 C 1560.91 1081.29 1551.15 1077.5 1539.3 1071.41 C 1565.01 1043.68 1589.32 1032.78 1627.83 1029.42 z"/>
<path transform="translate(0,0)" fill="rgb(0,87,88)" d="M 1758.07 756.8 C 1802.53 754.02 1840.84 787.762 1843.69 832.213 C 1846.55 876.663 1812.87 915.032 1768.43 917.964 C 1723.87 920.903 1685.39 887.126 1682.53 842.569 C 1679.67 798.011 1713.51 759.587 1758.07 756.8 z"/>
<path transform="translate(0,0)" fill="rgb(239,234,226)" d="M 1740.34 801.356 C 1755.1 801.078 1767.36 812.654 1767.94 827.4 C 1768.52 842.147 1757.19 854.646 1742.46 855.522 C 1732.66 856.105 1723.31 851.345 1718.02 843.078 C 1712.73 834.811 1712.32 824.328 1716.95 815.672 C 1721.58 807.017 1730.53 801.54 1740.34 801.356 z"/>
<path transform="translate(0,0)" fill="rgb(0,87,88)" d="M 1388.42 764.356 C 1431.43 760.66 1469.36 792.352 1473.38 835.332 C 1477.4 878.313 1445.99 916.485 1403.04 920.82 C 1359.63 925.202 1320.97 893.388 1316.91 849.953 C 1312.85 806.518 1344.95 768.092 1388.42 764.356 z"/>
<path transform="translate(0,0)" fill="rgb(239,234,226)" d="M 1376.89 804.075 C 1389.31 803.366 1400.38 811.193 1404.22 822.963 C 1406.72 830.549 1406.07 838.82 1402.41 845.921 C 1398.07 854.212 1392.82 857.235 1384.37 860.058 C 1347.83 861.403 1341.51 814.035 1376.89 804.075 z"/>
<path transform="translate(0,0)" fill="rgb(230,149,127)" d="M 1834.53 933.366 C 1914.2 922.773 1952.48 984.785 1860.23 999.809 C 1841.29 1001.29 1806.73 999.905 1792.68 986.489 C 1755.14 950.652 1810.26 936.258 1834.53 933.366 z"/>
<path transform="translate(0,0)" fill="rgb(239,234,226)" d="M 864.614 1456.41 C 865.041 1456.31 867.505 1456.25 868.032 1456.23 L 868.829 1457.88 C 864.949 1492.06 859.6 1524.99 838.2 1553.72 C 827.66 1567.88 800.063 1593.13 781.545 1595.9 C 777.731 1596.47 758.904 1596.32 753.954 1596.33 L 703.297 1596.36 L 641.592 1596.34 C 607.491 1596.31 598.375 1597.36 570.857 1574.43 C 566.975 1570.74 562.948 1566.55 559.139 1562.73 C 580.252 1530.78 573.888 1496.45 557.636 1463.96 C 576.07 1467.58 623.295 1467.94 643.001 1468.04 C 716.707 1468.43 791.508 1466.24 864.614 1456.41 z"/>
<path transform="translate(0,0)" fill="rgb(254,187,48)" d="M 1310.1 1099.05 C 1316.45 1098.65 1318.63 1098.44 1323.94 1102.28 C 1335.37 1110.55 1346.52 1119.16 1358.2 1127.06 C 1403.93 1158.38 1449.48 1189.94 1494.87 1221.74 C 1477.9 1223.95 1458.8 1224.68 1441.54 1225.6 C 1407.1 1227.14 1372.67 1228.86 1338.25 1230.77 C 1298.41 1232.33 1255.85 1237.6 1215.85 1240.13 C 1198.55 1241.22 1181.29 1243.77 1163.83 1244.22 C 1171.35 1235.03 1185.62 1224.39 1194.24 1215.18 C 1220.44 1187.2 1247.25 1159.44 1274.35 1132.35 C 1282.85 1123.86 1300.66 1104.7 1310.1 1099.05 z"/>
<path transform="translate(0,0)" fill="rgb(239,234,226)" d="M 692.365 1332.21 C 719.259 1330.3 743.534 1339.78 759.349 1361.54 C 767.921 1376.23 771.828 1385.78 791.409 1384.93 C 814.228 1383.95 827.405 1393.11 837.254 1413.49 C 791.139 1422.17 719.791 1422.3 672.25 1422.82 C 623.432 1422.9 577.693 1422.41 529.283 1415.61 C 530.861 1412.36 532.649 1409.21 534.634 1406.19 C 566.114 1358 608.722 1394.22 628.15 1383.37 C 633.982 1380.12 637.72 1373.73 641.418 1368.36 C 654.629 1349.19 669.381 1337.24 692.365 1332.21 z"/>
<path transform="translate(0,0)" fill="rgb(254,187,48)" d="M 1412.65 1270.47 L 1414.54 1270.51 C 1414.02 1273.95 1406.18 1283.06 1403.74 1287.38 C 1398.89 1295.97 1396.05 1302.8 1393.2 1312.17 C 1345.69 1314.45 1298.22 1317.31 1250.78 1320.73 C 1227.7 1322.26 1203.91 1324.53 1180.81 1325.13 C 1176.56 1325.24 1173.27 1324.09 1169.4 1322.46 C 1158.15 1310.54 1162.42 1301.24 1169.12 1288.15 C 1189.18 1285.37 1219.64 1283.87 1240.57 1282.16 C 1297.87 1277.47 1355.24 1273.57 1412.65 1270.47 z"/>
</svg>